<svg width="893" height="261" viewBox="0 0 893 261" fill="none" xmlns="http://www.w3.org/2000/svg">
<g filter="url(#filter0_f_131_156)">
<path d="M150.672 165.448L186.896 74.0239H232.687V80.2966C229.237 80.2966 226.414 80.6625 224.219 81.3943C222.128 82.0216 220.507 83.2238 219.357 85.0011C218.207 86.7783 217.423 89.2351 217.005 92.3715C216.691 95.4033 216.535 99.2714 216.535 103.976V164.821C216.535 170.048 216.744 174.177 217.162 177.209C217.58 180.241 218.416 182.593 219.671 184.266C220.925 185.939 222.703 187.036 225.003 187.559C227.407 188.082 230.544 188.396 234.412 188.5V194.773H175.449V188.5C179.317 188.396 182.401 188.082 184.701 187.559C187.105 186.932 188.935 185.834 190.189 184.266C191.548 182.698 192.437 180.502 192.855 177.68C193.273 174.752 193.483 170.832 193.483 165.918V92.5283H192.698L150.515 196.341H138.91L95.3153 92.5283H94.6881V164.821C94.6881 170.048 94.8971 174.177 95.3153 177.209C95.7335 180.241 96.5699 182.593 97.8244 184.266C99.0789 185.939 100.856 187.036 103.156 187.559C105.561 188.082 108.697 188.396 112.565 188.5V194.773H64.2656V188.5C68.1338 188.396 71.2701 188.082 73.6746 187.559C76.0791 186.932 77.9087 185.834 79.1632 184.266C80.5223 182.698 81.4109 180.502 81.8291 177.68C82.2473 174.752 82.4564 170.832 82.4564 165.918V102.878C82.4564 98.4873 82.2473 94.8283 81.8291 91.901C81.4109 88.9738 80.6268 86.6738 79.4768 85.0011C78.3268 83.2238 76.6541 82.0216 74.4587 81.3943C72.3678 80.6625 69.5451 80.2966 65.9906 80.2966V74.0239H113.506L150.044 165.448H150.672Z" fill="#03C83A" fill-opacity="0.3"/>
<path d="M277.306 150.08C268.524 154.053 261.886 157.764 257.39 161.214C252.999 164.559 250.804 168.062 250.804 171.721C250.804 174.752 251.64 177.157 253.313 178.934C254.986 180.712 257.077 181.6 259.586 181.6C262.095 181.6 264.447 181.182 266.642 180.346C268.838 179.405 270.72 178.202 272.288 176.739C273.856 175.275 275.058 173.55 275.895 171.564C276.835 169.473 277.306 167.278 277.306 164.978V150.08ZM277.306 141.769V135.182C277.306 129.119 276.208 124.728 274.013 122.01C271.922 119.187 268.629 117.776 264.133 117.776C261.102 117.776 258.802 118.612 257.233 120.285C255.665 121.853 254.202 124.519 252.843 128.282C251.902 130.896 250.543 132.935 248.765 134.398C247.093 135.862 244.74 136.594 241.709 136.594C238.781 136.594 236.534 135.705 234.965 133.928C233.397 132.151 232.613 129.642 232.613 126.401C232.613 121.383 235.331 117.41 240.768 114.483C246.308 111.555 254.62 110.092 265.701 110.092C277.41 110.092 285.774 112.235 290.792 116.521C295.81 120.703 298.319 127.76 298.319 137.691V172.034C298.319 180.921 300.097 185.364 303.651 185.364C305.637 185.364 307.467 184.684 309.14 183.325L311.492 187.873C310.028 190.486 307.728 192.577 304.592 194.145C301.56 195.609 298.11 196.341 294.242 196.341C289.433 196.341 285.774 194.877 283.265 191.95C280.756 189.023 279.501 184.893 279.501 179.562H278.717C275.685 184.998 271.765 189.127 266.956 191.95C262.147 194.773 256.658 196.184 250.49 196.184C243.904 196.184 238.624 194.355 234.652 190.696C230.679 186.932 228.693 182.071 228.693 176.112C228.693 171.512 230.731 167.225 234.809 163.253C238.886 159.175 245.681 155.203 255.195 151.335L277.306 141.769Z" fill="#03C83A" fill-opacity="0.3"/>
<path d="M338.028 169.212C338.028 173.498 338.133 176.896 338.342 179.405C338.656 181.809 339.231 183.691 340.067 185.05C341.008 186.305 342.367 187.141 344.144 187.559C346.026 187.977 348.535 188.291 351.671 188.5V194.773H302.274V188.5C305.306 188.291 307.71 187.977 309.488 187.559C311.369 187.141 312.781 186.305 313.722 185.05C314.767 183.796 315.447 182.018 315.76 179.718C316.074 177.418 316.231 174.282 316.231 170.309V150.707C316.231 144.539 316.126 139.573 315.917 135.81C315.708 131.942 315.447 129.328 315.133 127.969C314.819 126.61 314.401 125.512 313.878 124.676C313.356 123.735 312.572 123.055 311.526 122.637C310.481 122.114 309.174 121.801 307.606 121.696C306.038 121.487 304.051 121.383 301.647 121.383V116.051L331.912 110.092L333.951 123.892H334.578C338.028 119.501 342.106 116.103 346.81 113.699C351.514 111.294 356.689 110.092 362.335 110.092C369.026 110.092 374.41 111.033 378.487 112.914C382.669 114.692 386.38 117.724 389.621 122.01C391.398 124.414 392.966 127.551 394.325 131.419C395.684 135.182 396.364 140.41 396.364 147.1V169.212C396.364 173.498 396.469 176.896 396.678 179.405C396.991 181.809 397.566 183.691 398.403 185.05C399.344 186.305 400.703 187.141 402.48 187.559C404.257 187.977 406.662 188.291 409.693 188.5V194.773H360.61V188.5C363.746 188.396 366.203 188.134 367.98 187.716C369.862 187.193 371.273 186.305 372.214 185.05C373.155 183.796 373.782 182.018 374.096 179.718C374.41 177.314 374.567 174.177 374.567 170.309V148.982C374.567 143.651 374.253 139.155 373.626 135.496C372.998 131.837 371.953 128.91 370.489 126.714C369.13 124.414 367.301 122.794 365.001 121.853C362.701 120.808 359.826 120.285 356.376 120.285C353.03 120.285 350.155 121.226 347.751 123.108C345.346 124.989 343.255 127.603 341.478 130.948C340.537 132.83 339.701 135.287 338.969 138.319C338.342 141.246 338.028 144.33 338.028 147.571V169.212Z" fill="#03C83A" fill-opacity="0.3"/>
<path d="M471.411 184.736H470.783C463.57 192.473 454.213 196.341 442.713 196.341C436.754 196.341 431.266 195.295 426.247 193.205C421.334 191.114 417.047 188.186 413.388 184.423C409.834 180.659 407.064 176.216 405.077 171.093C403.091 165.866 402.098 160.116 402.098 153.844C402.098 147.571 403.091 141.769 405.077 136.437C407.168 131.105 409.938 126.505 413.388 122.637C416.943 118.664 421.125 115.58 425.934 113.385C430.847 111.189 436.127 110.092 441.772 110.092C446.999 110.092 451.599 110.876 455.572 112.444C459.649 114.012 463.204 116.678 466.236 120.442H466.863V107.112C466.863 100.944 466.758 95.6646 466.549 91.2738C466.445 86.7784 466.236 83.8511 465.922 82.492C465.399 80.2966 463.779 78.7284 461.061 77.7875C458.447 76.7421 454.37 76.2194 448.829 76.2194V70.8876L488.504 64.6149V154.314C488.504 162.155 488.556 168.218 488.66 172.505C488.87 176.687 489.183 179.875 489.601 182.071C489.81 183.43 490.124 184.527 490.542 185.364C490.96 186.2 491.588 186.88 492.424 187.402C493.26 187.821 494.358 188.134 495.717 188.343C497.181 188.448 499.01 188.5 501.206 188.5V194.616L471.411 196.341V184.736ZM466.549 149.766C466.549 145.794 466.131 142.135 465.295 138.789C464.458 135.339 463.204 132.307 461.531 129.694C459.649 126.662 457.245 124.362 454.318 122.794C451.39 121.226 448.254 120.442 444.909 120.442C438.74 120.442 434.036 123.264 430.795 128.91C427.554 134.555 425.934 142.762 425.934 153.53C425.934 164.403 427.554 172.766 430.795 178.621C434.036 184.475 438.688 187.402 444.752 187.402C448.202 187.402 451.495 186.514 454.631 184.736C457.768 182.959 460.329 180.555 462.315 177.523C463.779 175.223 464.824 172.4 465.452 169.055C466.183 165.605 466.549 161.214 466.549 155.882V149.766Z" fill="#03C83A" fill-opacity="0.3"/>
<path d="M529.642 170.466C529.642 174.543 529.799 177.784 530.113 180.189C530.531 182.489 531.315 184.266 532.465 185.521C533.615 186.775 535.288 187.611 537.483 188.03C539.679 188.343 542.606 188.5 546.265 188.5V194.773H493.888V188.5C497.024 188.291 499.533 187.977 501.415 187.559C503.297 187.141 504.708 186.305 505.649 185.05C506.59 183.796 507.165 182.018 507.374 179.718C507.688 177.314 507.845 174.125 507.845 170.153V151.021C507.845 144.539 507.688 139.364 507.374 135.496C507.061 131.628 506.381 128.648 505.336 126.557C504.29 124.467 502.774 123.108 500.788 122.48C498.906 121.748 496.397 121.383 493.261 121.383V115.894L524.624 110.092L527.133 128.126H527.76C530.583 122.585 534.294 118.194 538.894 114.953C543.494 111.712 548.356 110.092 553.478 110.092C557.451 110.092 560.692 111.085 563.201 113.071C565.71 115.058 566.965 117.567 566.965 120.598C566.965 123.944 565.971 126.767 563.985 129.067C562.103 131.367 559.49 132.517 556.144 132.517C554.576 132.517 553.165 132.203 551.91 131.576C550.656 130.948 549.506 130.269 548.46 129.537C547.519 128.701 546.526 127.969 545.481 127.342C544.54 126.61 543.547 126.244 542.501 126.244C540.515 126.244 538.633 127.551 536.856 130.164C535.079 132.778 533.615 136.28 532.465 140.671C531.629 143.807 530.949 147.362 530.426 151.335C529.904 155.203 529.642 159.071 529.642 162.939V170.466Z" fill="#03C83A" fill-opacity="0.3"/>
<path d="M605.549 150.08C596.767 154.053 590.129 157.764 585.633 161.214C581.242 164.559 579.047 168.062 579.047 171.721C579.047 174.752 579.883 177.157 581.556 178.934C583.229 180.712 585.32 181.6 587.829 181.6C590.338 181.6 592.69 181.182 594.885 180.346C597.081 179.405 598.963 178.202 600.531 176.739C602.099 175.275 603.301 173.55 604.138 171.564C605.078 169.473 605.549 167.278 605.549 164.978V150.08ZM605.549 141.769V135.182C605.549 129.119 604.451 124.728 602.256 122.01C600.165 119.187 596.872 117.776 592.376 117.776C589.344 117.776 587.044 118.612 585.476 120.285C583.908 121.853 582.445 124.519 581.085 128.282C580.145 130.896 578.785 132.935 577.008 134.398C575.336 135.862 572.983 136.594 569.951 136.594C567.024 136.594 564.777 135.705 563.208 133.928C561.64 132.151 560.856 129.642 560.856 126.401C560.856 121.383 563.574 117.41 569.011 114.483C574.551 111.555 582.863 110.092 593.944 110.092C605.653 110.092 614.017 112.235 619.035 116.521C624.053 120.703 626.562 127.76 626.562 137.691V172.034C626.562 180.921 628.34 185.364 631.894 185.364C633.88 185.364 635.71 184.684 637.383 183.325L639.735 187.873C638.271 190.486 635.971 192.577 632.835 194.145C629.803 195.609 626.353 196.341 622.485 196.341C617.676 196.341 614.017 194.877 611.508 191.95C608.999 189.023 607.744 184.893 607.744 179.562H606.96C603.928 184.998 600.008 189.127 595.199 191.95C590.39 194.773 584.901 196.184 578.733 196.184C572.147 196.184 566.867 194.355 562.895 190.696C558.922 186.932 556.936 182.071 556.936 176.112C556.936 171.512 558.974 167.225 563.052 163.253C567.129 159.175 573.924 155.203 583.438 151.335L605.549 141.769Z" fill="#03C83A" fill-opacity="0.3"/>
<path d="M682.11 188.5C685.455 188.5 687.807 188.396 689.166 188.186C690.526 187.873 691.205 187.298 691.205 186.461C691.205 185.834 690.473 184.318 689.01 181.914C687.651 179.405 685.873 176.53 683.678 173.289L671.76 155.412L663.919 162.939V169.055C663.919 173.132 664.076 176.425 664.389 178.934C664.703 181.443 665.226 183.43 665.958 184.893C666.794 186.252 667.892 187.193 669.251 187.716C670.714 188.239 672.544 188.5 674.739 188.5V194.773H628.478V188.5C631.406 188.396 633.758 188.082 635.535 187.559C637.312 187.036 638.724 186.148 639.769 184.893C640.815 183.534 641.494 181.705 641.808 179.405C642.226 177 642.435 173.916 642.435 170.153V103.662C642.435 97.2851 642.331 92.2669 642.121 88.6079C641.912 84.9488 641.337 82.2307 640.396 80.4534C639.56 78.5716 638.201 77.4216 636.319 77.0034C634.542 76.5853 632.085 76.3762 628.949 76.3762V70.574L663.919 64.6149V151.805L678.973 137.535C684.41 132.412 688.278 128.596 690.578 126.087C692.878 123.473 694.028 121.592 694.028 120.442C694.028 119.501 693.035 118.873 691.048 118.56C689.166 118.142 685.612 117.933 680.385 117.933V111.66H723.196V117.933C719.223 117.933 715.721 118.612 712.689 119.971C709.657 121.33 706.364 123.683 702.809 127.028L687.598 141.298L714.728 179.718C717.132 183.064 719.484 185.364 721.784 186.618C724.084 187.873 727.116 188.5 730.88 188.5V194.773H682.11V188.5Z" fill="#03C83A" fill-opacity="0.3"/>
<path d="M794.817 180.189C785.303 190.957 773.437 196.341 759.219 196.341C752.738 196.341 746.831 195.348 741.499 193.361C736.272 191.271 731.776 188.396 728.013 184.736C724.249 180.973 721.322 176.53 719.231 171.407C717.14 166.284 716.095 160.587 716.095 154.314C716.095 147.832 717.193 141.926 719.388 136.594C721.583 131.157 724.667 126.505 728.64 122.637C732.717 118.664 737.474 115.58 742.91 113.385C748.451 111.189 754.515 110.092 761.101 110.092C772.183 110.092 780.808 113.071 786.976 119.03C793.144 124.989 796.228 133.353 796.228 144.121C796.228 145.794 795.967 146.839 795.444 147.257C794.921 147.571 793.458 147.728 791.053 147.728H740.558C740.14 148.669 739.931 150.394 739.931 152.903C739.931 163.148 742.126 171.25 746.517 177.209C751.013 183.168 757.076 186.148 764.708 186.148C769.099 186.148 773.437 185.155 777.724 183.168C782.115 181.182 786.349 178.359 790.426 174.7L794.817 180.189ZM764.394 138.946C768.576 138.946 771.242 138.737 772.392 138.319C773.646 137.796 774.274 136.646 774.274 134.869C774.274 130.269 772.967 126.505 770.353 123.578C767.74 120.651 764.447 119.187 760.474 119.187C755.978 119.187 751.954 121.069 748.399 124.833C744.949 128.492 742.701 133.196 741.656 138.946H764.394Z" fill="#03C83A" fill-opacity="0.3"/>
<path d="M794.654 184.736C794.654 181.391 795.751 178.568 797.947 176.268C800.247 173.864 803.07 172.662 806.415 172.662C809.865 172.662 812.74 173.864 815.04 176.268C817.34 178.568 818.49 181.391 818.49 184.736C818.49 187.977 817.34 190.748 815.04 193.048C812.74 195.243 809.865 196.341 806.415 196.341C803.07 196.341 800.247 195.243 797.947 193.048C795.751 190.748 794.654 187.977 794.654 184.736Z" fill="#03C83A" fill-opacity="0.3"/>
<path d="M782.501 72.2596V68.2095H801.583V72.2596H794.47V91.4438H789.614V72.2596H782.501Z" fill="#03C83A" fill-opacity="0.3"/>
<path d="M803.447 68.2095H809.506L815.904 83.8201H816.176L822.575 68.2095H828.633V91.4438H823.868V76.3211H823.675L817.663 91.3303H814.418L808.405 76.2644H808.212V91.4438H803.447V68.2095Z" fill="#03C83A" fill-opacity="0.3"/>
</g>
<g filter="url(#filter1_f_131_156)">
<path d="M150.672 165.448L186.896 74.0239H232.687V80.2966C229.237 80.2966 226.414 80.6625 224.219 81.3943C222.128 82.0216 220.507 83.2238 219.357 85.0011C218.207 86.7783 217.423 89.2351 217.005 92.3715C216.691 95.4033 216.535 99.2714 216.535 103.976V164.821C216.535 170.048 216.744 174.177 217.162 177.209C217.58 180.241 218.416 182.593 219.671 184.266C220.925 185.939 222.703 187.036 225.003 187.559C227.407 188.082 230.544 188.396 234.412 188.5V194.773H175.449V188.5C179.317 188.396 182.401 188.082 184.701 187.559C187.105 186.932 188.935 185.834 190.189 184.266C191.548 182.698 192.437 180.502 192.855 177.68C193.273 174.752 193.483 170.832 193.483 165.918V92.5283H192.698L150.515 196.341H138.91L95.3153 92.5283H94.6881V164.821C94.6881 170.048 94.8971 174.177 95.3153 177.209C95.7335 180.241 96.5699 182.593 97.8244 184.266C99.0789 185.939 100.856 187.036 103.156 187.559C105.561 188.082 108.697 188.396 112.565 188.5V194.773H64.2656V188.5C68.1338 188.396 71.2701 188.082 73.6746 187.559C76.0791 186.932 77.9087 185.834 79.1632 184.266C80.5223 182.698 81.4109 180.502 81.8291 177.68C82.2473 174.752 82.4564 170.832 82.4564 165.918V102.878C82.4564 98.4873 82.2473 94.8283 81.8291 91.901C81.4109 88.9738 80.6268 86.6738 79.4768 85.0011C78.3268 83.2238 76.6541 82.0216 74.4587 81.3943C72.3678 80.6625 69.5451 80.2966 65.9906 80.2966V74.0239H113.506L150.044 165.448H150.672Z" fill="#03C83A" fill-opacity="0.7"/>
<path d="M277.306 150.08C268.524 154.053 261.886 157.764 257.39 161.214C252.999 164.559 250.804 168.062 250.804 171.721C250.804 174.752 251.64 177.157 253.313 178.934C254.986 180.712 257.077 181.6 259.586 181.6C262.095 181.6 264.447 181.182 266.642 180.346C268.838 179.405 270.72 178.202 272.288 176.739C273.856 175.275 275.058 173.55 275.895 171.564C276.835 169.473 277.306 167.278 277.306 164.978V150.08ZM277.306 141.769V135.182C277.306 129.119 276.208 124.728 274.013 122.01C271.922 119.187 268.629 117.776 264.133 117.776C261.102 117.776 258.802 118.612 257.233 120.285C255.665 121.853 254.202 124.519 252.843 128.282C251.902 130.896 250.543 132.935 248.765 134.398C247.093 135.862 244.74 136.594 241.709 136.594C238.781 136.594 236.534 135.705 234.965 133.928C233.397 132.151 232.613 129.642 232.613 126.401C232.613 121.383 235.331 117.41 240.768 114.483C246.308 111.555 254.62 110.092 265.701 110.092C277.41 110.092 285.774 112.235 290.792 116.521C295.81 120.703 298.319 127.76 298.319 137.691V172.034C298.319 180.921 300.097 185.364 303.651 185.364C305.637 185.364 307.467 184.684 309.14 183.325L311.492 187.873C310.028 190.486 307.728 192.577 304.592 194.145C301.56 195.609 298.11 196.341 294.242 196.341C289.433 196.341 285.774 194.877 283.265 191.95C280.756 189.023 279.501 184.893 279.501 179.562H278.717C275.685 184.998 271.765 189.127 266.956 191.95C262.147 194.773 256.658 196.184 250.49 196.184C243.904 196.184 238.624 194.355 234.652 190.696C230.679 186.932 228.693 182.071 228.693 176.112C228.693 171.512 230.731 167.225 234.809 163.253C238.886 159.175 245.681 155.203 255.195 151.335L277.306 141.769Z" fill="#03C83A" fill-opacity="0.7"/>
<path d="M338.028 169.212C338.028 173.498 338.133 176.896 338.342 179.405C338.656 181.809 339.231 183.691 340.067 185.05C341.008 186.305 342.367 187.141 344.144 187.559C346.026 187.977 348.535 188.291 351.671 188.5V194.773H302.274V188.5C305.306 188.291 307.71 187.977 309.488 187.559C311.369 187.141 312.781 186.305 313.722 185.05C314.767 183.796 315.447 182.018 315.76 179.718C316.074 177.418 316.231 174.282 316.231 170.309V150.707C316.231 144.539 316.126 139.573 315.917 135.81C315.708 131.942 315.447 129.328 315.133 127.969C314.819 126.61 314.401 125.512 313.878 124.676C313.356 123.735 312.572 123.055 311.526 122.637C310.481 122.114 309.174 121.801 307.606 121.696C306.038 121.487 304.051 121.383 301.647 121.383V116.051L331.912 110.092L333.951 123.892H334.578C338.028 119.501 342.106 116.103 346.81 113.699C351.514 111.294 356.689 110.092 362.335 110.092C369.026 110.092 374.41 111.033 378.487 112.914C382.669 114.692 386.38 117.724 389.621 122.01C391.398 124.414 392.966 127.551 394.325 131.419C395.684 135.182 396.364 140.41 396.364 147.1V169.212C396.364 173.498 396.469 176.896 396.678 179.405C396.991 181.809 397.566 183.691 398.403 185.05C399.344 186.305 400.703 187.141 402.48 187.559C404.257 187.977 406.662 188.291 409.693 188.5V194.773H360.61V188.5C363.746 188.396 366.203 188.134 367.98 187.716C369.862 187.193 371.273 186.305 372.214 185.05C373.155 183.796 373.782 182.018 374.096 179.718C374.41 177.314 374.567 174.177 374.567 170.309V148.982C374.567 143.651 374.253 139.155 373.626 135.496C372.998 131.837 371.953 128.91 370.489 126.714C369.13 124.414 367.301 122.794 365.001 121.853C362.701 120.808 359.826 120.285 356.376 120.285C353.03 120.285 350.155 121.226 347.751 123.108C345.346 124.989 343.255 127.603 341.478 130.948C340.537 132.83 339.701 135.287 338.969 138.319C338.342 141.246 338.028 144.33 338.028 147.571V169.212Z" fill="#03C83A" fill-opacity="0.7"/>
<path d="M471.411 184.736H470.783C463.57 192.473 454.213 196.341 442.713 196.341C436.754 196.341 431.266 195.295 426.247 193.205C421.334 191.114 417.047 188.186 413.388 184.423C409.834 180.659 407.064 176.216 405.077 171.093C403.091 165.866 402.098 160.116 402.098 153.844C402.098 147.571 403.091 141.769 405.077 136.437C407.168 131.105 409.938 126.505 413.388 122.637C416.943 118.664 421.125 115.58 425.934 113.385C430.847 111.189 436.127 110.092 441.772 110.092C446.999 110.092 451.599 110.876 455.572 112.444C459.649 114.012 463.204 116.678 466.236 120.442H466.863V107.112C466.863 100.944 466.758 95.6646 466.549 91.2738C466.445 86.7784 466.236 83.8511 465.922 82.492C465.399 80.2966 463.779 78.7284 461.061 77.7875C458.447 76.7421 454.37 76.2194 448.829 76.2194V70.8876L488.504 64.6149V154.314C488.504 162.155 488.556 168.218 488.66 172.505C488.87 176.687 489.183 179.875 489.601 182.071C489.81 183.43 490.124 184.527 490.542 185.364C490.96 186.2 491.588 186.88 492.424 187.402C493.26 187.821 494.358 188.134 495.717 188.343C497.181 188.448 499.01 188.5 501.206 188.5V194.616L471.411 196.341V184.736ZM466.549 149.766C466.549 145.794 466.131 142.135 465.295 138.789C464.458 135.339 463.204 132.307 461.531 129.694C459.649 126.662 457.245 124.362 454.318 122.794C451.39 121.226 448.254 120.442 444.909 120.442C438.74 120.442 434.036 123.264 430.795 128.91C427.554 134.555 425.934 142.762 425.934 153.53C425.934 164.403 427.554 172.766 430.795 178.621C434.036 184.475 438.688 187.402 444.752 187.402C448.202 187.402 451.495 186.514 454.631 184.736C457.768 182.959 460.329 180.555 462.315 177.523C463.779 175.223 464.824 172.4 465.452 169.055C466.183 165.605 466.549 161.214 466.549 155.882V149.766Z" fill="#03C83A" fill-opacity="0.7"/>
<path d="M529.642 170.466C529.642 174.543 529.799 177.784 530.113 180.189C530.531 182.489 531.315 184.266 532.465 185.521C533.615 186.775 535.288 187.611 537.483 188.03C539.679 188.343 542.606 188.5 546.265 188.5V194.773H493.888V188.5C497.024 188.291 499.533 187.977 501.415 187.559C503.297 187.141 504.708 186.305 505.649 185.05C506.59 183.796 507.165 182.018 507.374 179.718C507.688 177.314 507.845 174.125 507.845 170.153V151.021C507.845 144.539 507.688 139.364 507.374 135.496C507.061 131.628 506.381 128.648 505.336 126.557C504.29 124.467 502.774 123.108 500.788 122.48C498.906 121.748 496.397 121.383 493.261 121.383V115.894L524.624 110.092L527.133 128.126H527.76C530.583 122.585 534.294 118.194 538.894 114.953C543.494 111.712 548.356 110.092 553.478 110.092C557.451 110.092 560.692 111.085 563.201 113.071C565.71 115.058 566.965 117.567 566.965 120.598C566.965 123.944 565.971 126.767 563.985 129.067C562.103 131.367 559.49 132.517 556.144 132.517C554.576 132.517 553.165 132.203 551.91 131.576C550.656 130.948 549.506 130.269 548.46 129.537C547.519 128.701 546.526 127.969 545.481 127.342C544.54 126.61 543.547 126.244 542.501 126.244C540.515 126.244 538.633 127.551 536.856 130.164C535.079 132.778 533.615 136.28 532.465 140.671C531.629 143.807 530.949 147.362 530.426 151.335C529.904 155.203 529.642 159.071 529.642 162.939V170.466Z" fill="#03C83A" fill-opacity="0.7"/>
<path d="M605.549 150.08C596.767 154.053 590.129 157.764 585.633 161.214C581.242 164.559 579.047 168.062 579.047 171.721C579.047 174.752 579.883 177.157 581.556 178.934C583.229 180.712 585.32 181.6 587.829 181.6C590.338 181.6 592.69 181.182 594.885 180.346C597.081 179.405 598.963 178.202 600.531 176.739C602.099 175.275 603.301 173.55 604.138 171.564C605.078 169.473 605.549 167.278 605.549 164.978V150.08ZM605.549 141.769V135.182C605.549 129.119 604.451 124.728 602.256 122.01C600.165 119.187 596.872 117.776 592.376 117.776C589.344 117.776 587.044 118.612 585.476 120.285C583.908 121.853 582.445 124.519 581.085 128.282C580.145 130.896 578.785 132.935 577.008 134.398C575.336 135.862 572.983 136.594 569.951 136.594C567.024 136.594 564.777 135.705 563.208 133.928C561.64 132.151 560.856 129.642 560.856 126.401C560.856 121.383 563.574 117.41 569.011 114.483C574.551 111.555 582.863 110.092 593.944 110.092C605.653 110.092 614.017 112.235 619.035 116.521C624.053 120.703 626.562 127.76 626.562 137.691V172.034C626.562 180.921 628.34 185.364 631.894 185.364C633.88 185.364 635.71 184.684 637.383 183.325L639.735 187.873C638.271 190.486 635.971 192.577 632.835 194.145C629.803 195.609 626.353 196.341 622.485 196.341C617.676 196.341 614.017 194.877 611.508 191.95C608.999 189.023 607.744 184.893 607.744 179.562H606.96C603.928 184.998 600.008 189.127 595.199 191.95C590.39 194.773 584.901 196.184 578.733 196.184C572.147 196.184 566.867 194.355 562.895 190.696C558.922 186.932 556.936 182.071 556.936 176.112C556.936 171.512 558.974 167.225 563.052 163.253C567.129 159.175 573.924 155.203 583.438 151.335L605.549 141.769Z" fill="#03C83A" fill-opacity="0.7"/>
<path d="M682.11 188.5C685.455 188.5 687.807 188.396 689.166 188.186C690.526 187.873 691.205 187.298 691.205 186.461C691.205 185.834 690.473 184.318 689.01 181.914C687.651 179.405 685.873 176.53 683.678 173.289L671.76 155.412L663.919 162.939V169.055C663.919 173.132 664.076 176.425 664.389 178.934C664.703 181.443 665.226 183.43 665.958 184.893C666.794 186.252 667.892 187.193 669.251 187.716C670.714 188.239 672.544 188.5 674.739 188.5V194.773H628.478V188.5C631.406 188.396 633.758 188.082 635.535 187.559C637.312 187.036 638.724 186.148 639.769 184.893C640.815 183.534 641.494 181.705 641.808 179.405C642.226 177 642.435 173.916 642.435 170.153V103.662C642.435 97.2851 642.331 92.2669 642.121 88.6079C641.912 84.9488 641.337 82.2307 640.396 80.4534C639.56 78.5716 638.201 77.4216 636.319 77.0034C634.542 76.5853 632.085 76.3762 628.949 76.3762V70.574L663.919 64.6149V151.805L678.973 137.535C684.41 132.412 688.278 128.596 690.578 126.087C692.878 123.473 694.028 121.592 694.028 120.442C694.028 119.501 693.035 118.873 691.048 118.56C689.166 118.142 685.612 117.933 680.385 117.933V111.66H723.196V117.933C719.223 117.933 715.721 118.612 712.689 119.971C709.657 121.33 706.364 123.683 702.809 127.028L687.598 141.298L714.728 179.718C717.132 183.064 719.484 185.364 721.784 186.618C724.084 187.873 727.116 188.5 730.88 188.5V194.773H682.11V188.5Z" fill="#03C83A" fill-opacity="0.7"/>
<path d="M794.817 180.189C785.303 190.957 773.437 196.341 759.219 196.341C752.738 196.341 746.831 195.348 741.499 193.361C736.272 191.271 731.776 188.396 728.013 184.736C724.249 180.973 721.322 176.53 719.231 171.407C717.14 166.284 716.095 160.587 716.095 154.314C716.095 147.832 717.193 141.926 719.388 136.594C721.583 131.157 724.667 126.505 728.64 122.637C732.717 118.664 737.474 115.58 742.91 113.385C748.451 111.189 754.515 110.092 761.101 110.092C772.183 110.092 780.808 113.071 786.976 119.03C793.144 124.989 796.228 133.353 796.228 144.121C796.228 145.794 795.967 146.839 795.444 147.257C794.921 147.571 793.458 147.728 791.053 147.728H740.558C740.14 148.669 739.931 150.394 739.931 152.903C739.931 163.148 742.126 171.25 746.517 177.209C751.013 183.168 757.076 186.148 764.708 186.148C769.099 186.148 773.437 185.155 777.724 183.168C782.115 181.182 786.349 178.359 790.426 174.7L794.817 180.189ZM764.394 138.946C768.576 138.946 771.242 138.737 772.392 138.319C773.646 137.796 774.274 136.646 774.274 134.869C774.274 130.269 772.967 126.505 770.353 123.578C767.74 120.651 764.447 119.187 760.474 119.187C755.978 119.187 751.954 121.069 748.399 124.833C744.949 128.492 742.701 133.196 741.656 138.946H764.394Z" fill="#03C83A" fill-opacity="0.7"/>
<path d="M794.654 184.736C794.654 181.391 795.751 178.568 797.947 176.268C800.247 173.864 803.07 172.662 806.415 172.662C809.865 172.662 812.74 173.864 815.04 176.268C817.34 178.568 818.49 181.391 818.49 184.736C818.49 187.977 817.34 190.748 815.04 193.048C812.74 195.243 809.865 196.341 806.415 196.341C803.07 196.341 800.247 195.243 797.947 193.048C795.751 190.748 794.654 187.977 794.654 184.736Z" fill="#03C83A" fill-opacity="0.7"/>
<path d="M782.501 72.2596V68.2095H801.583V72.2596H794.47V91.4438H789.614V72.2596H782.501Z" fill="#03C83A" fill-opacity="0.7"/>
<path d="M803.447 68.2095H809.506L815.904 83.8201H816.176L822.575 68.2095H828.633V91.4438H823.868V76.3211H823.675L817.663 91.3303H814.418L808.405 76.2644H808.212V91.4438H803.447V68.2095Z" fill="#03C83A" fill-opacity="0.7"/>
</g>
<g filter="url(#filter2_f_131_156)">
<path d="M150.672 165.448L186.896 74.0239H232.687V80.2966C229.237 80.2966 226.414 80.6625 224.219 81.3943C222.128 82.0216 220.507 83.2238 219.357 85.0011C218.207 86.7783 217.423 89.2351 217.005 92.3715C216.691 95.4033 216.535 99.2714 216.535 103.976V164.821C216.535 170.048 216.744 174.177 217.162 177.209C217.58 180.241 218.416 182.593 219.671 184.266C220.925 185.939 222.703 187.036 225.003 187.559C227.407 188.082 230.544 188.396 234.412 188.5V194.773H175.449V188.5C179.317 188.396 182.401 188.082 184.701 187.559C187.105 186.932 188.935 185.834 190.189 184.266C191.548 182.698 192.437 180.502 192.855 177.68C193.273 174.752 193.483 170.832 193.483 165.918V92.5283H192.698L150.515 196.341H138.91L95.3153 92.5283H94.6881V164.821C94.6881 170.048 94.8971 174.177 95.3153 177.209C95.7335 180.241 96.5699 182.593 97.8244 184.266C99.0789 185.939 100.856 187.036 103.156 187.559C105.561 188.082 108.697 188.396 112.565 188.5V194.773H64.2656V188.5C68.1338 188.396 71.2701 188.082 73.6746 187.559C76.0791 186.932 77.9087 185.834 79.1632 184.266C80.5223 182.698 81.4109 180.502 81.8291 177.68C82.2473 174.752 82.4564 170.832 82.4564 165.918V102.878C82.4564 98.4873 82.2473 94.8283 81.8291 91.901C81.4109 88.9738 80.6268 86.6738 79.4768 85.0011C78.3268 83.2238 76.6541 82.0216 74.4587 81.3943C72.3678 80.6625 69.5451 80.2966 65.9906 80.2966V74.0239H113.506L150.044 165.448H150.672Z" fill="#03C83A"/>
<path d="M277.306 150.08C268.524 154.053 261.886 157.764 257.39 161.214C252.999 164.559 250.804 168.062 250.804 171.721C250.804 174.752 251.64 177.157 253.313 178.934C254.986 180.712 257.077 181.6 259.586 181.6C262.095 181.6 264.447 181.182 266.642 180.346C268.838 179.405 270.72 178.202 272.288 176.739C273.856 175.275 275.058 173.55 275.895 171.564C276.835 169.473 277.306 167.278 277.306 164.978V150.08ZM277.306 141.769V135.182C277.306 129.119 276.208 124.728 274.013 122.01C271.922 119.187 268.629 117.776 264.133 117.776C261.102 117.776 258.802 118.612 257.233 120.285C255.665 121.853 254.202 124.519 252.843 128.282C251.902 130.896 250.543 132.935 248.765 134.398C247.093 135.862 244.74 136.594 241.709 136.594C238.781 136.594 236.534 135.705 234.965 133.928C233.397 132.151 232.613 129.642 232.613 126.401C232.613 121.383 235.331 117.41 240.768 114.483C246.308 111.555 254.62 110.092 265.701 110.092C277.41 110.092 285.774 112.235 290.792 116.521C295.81 120.703 298.319 127.76 298.319 137.691V172.034C298.319 180.921 300.097 185.364 303.651 185.364C305.637 185.364 307.467 184.684 309.14 183.325L311.492 187.873C310.028 190.486 307.728 192.577 304.592 194.145C301.56 195.609 298.11 196.341 294.242 196.341C289.433 196.341 285.774 194.877 283.265 191.95C280.756 189.023 279.501 184.893 279.501 179.562H278.717C275.685 184.998 271.765 189.127 266.956 191.95C262.147 194.773 256.658 196.184 250.49 196.184C243.904 196.184 238.624 194.355 234.652 190.696C230.679 186.932 228.693 182.071 228.693 176.112C228.693 171.512 230.731 167.225 234.809 163.253C238.886 159.175 245.681 155.203 255.195 151.335L277.306 141.769Z" fill="#03C83A"/>
<path d="M338.028 169.212C338.028 173.498 338.133 176.896 338.342 179.405C338.656 181.809 339.231 183.691 340.067 185.05C341.008 186.305 342.367 187.141 344.144 187.559C346.026 187.977 348.535 188.291 351.671 188.5V194.773H302.274V188.5C305.306 188.291 307.71 187.977 309.488 187.559C311.369 187.141 312.781 186.305 313.722 185.05C314.767 183.796 315.447 182.018 315.76 179.718C316.074 177.418 316.231 174.282 316.231 170.309V150.707C316.231 144.539 316.126 139.573 315.917 135.81C315.708 131.942 315.447 129.328 315.133 127.969C314.819 126.61 314.401 125.512 313.878 124.676C313.356 123.735 312.572 123.055 311.526 122.637C310.481 122.114 309.174 121.801 307.606 121.696C306.038 121.487 304.051 121.383 301.647 121.383V116.051L331.912 110.092L333.951 123.892H334.578C338.028 119.501 342.106 116.103 346.81 113.699C351.514 111.294 356.689 110.092 362.335 110.092C369.026 110.092 374.41 111.033 378.487 112.914C382.669 114.692 386.38 117.724 389.621 122.01C391.398 124.414 392.966 127.551 394.325 131.419C395.684 135.182 396.364 140.41 396.364 147.1V169.212C396.364 173.498 396.469 176.896 396.678 179.405C396.991 181.809 397.566 183.691 398.403 185.05C399.344 186.305 400.703 187.141 402.48 187.559C404.257 187.977 406.662 188.291 409.693 188.5V194.773H360.61V188.5C363.746 188.396 366.203 188.134 367.98 187.716C369.862 187.193 371.273 186.305 372.214 185.05C373.155 183.796 373.782 182.018 374.096 179.718C374.41 177.314 374.567 174.177 374.567 170.309V148.982C374.567 143.651 374.253 139.155 373.626 135.496C372.998 131.837 371.953 128.91 370.489 126.714C369.13 124.414 367.301 122.794 365.001 121.853C362.701 120.808 359.826 120.285 356.376 120.285C353.03 120.285 350.155 121.226 347.751 123.108C345.346 124.989 343.255 127.603 341.478 130.948C340.537 132.83 339.701 135.287 338.969 138.319C338.342 141.246 338.028 144.33 338.028 147.571V169.212Z" fill="#03C83A"/>
<path d="M471.411 184.736H470.783C463.57 192.473 454.213 196.341 442.713 196.341C436.754 196.341 431.266 195.295 426.247 193.205C421.334 191.114 417.047 188.186 413.388 184.423C409.834 180.659 407.064 176.216 405.077 171.093C403.091 165.866 402.098 160.116 402.098 153.844C402.098 147.571 403.091 141.769 405.077 136.437C407.168 131.105 409.938 126.505 413.388 122.637C416.943 118.664 421.125 115.58 425.934 113.385C430.847 111.189 436.127 110.092 441.772 110.092C446.999 110.092 451.599 110.876 455.572 112.444C459.649 114.012 463.204 116.678 466.236 120.442H466.863V107.112C466.863 100.944 466.758 95.6646 466.549 91.2738C466.445 86.7784 466.236 83.8511 465.922 82.492C465.399 80.2966 463.779 78.7284 461.061 77.7875C458.447 76.7421 454.37 76.2194 448.829 76.2194V70.8876L488.504 64.6149V154.314C488.504 162.155 488.556 168.218 488.66 172.505C488.87 176.687 489.183 179.875 489.601 182.071C489.81 183.43 490.124 184.527 490.542 185.364C490.96 186.2 491.588 186.88 492.424 187.402C493.26 187.821 494.358 188.134 495.717 188.343C497.181 188.448 499.01 188.5 501.206 188.5V194.616L471.411 196.341V184.736ZM466.549 149.766C466.549 145.794 466.131 142.135 465.295 138.789C464.458 135.339 463.204 132.307 461.531 129.694C459.649 126.662 457.245 124.362 454.318 122.794C451.39 121.226 448.254 120.442 444.909 120.442C438.74 120.442 434.036 123.264 430.795 128.91C427.554 134.555 425.934 142.762 425.934 153.53C425.934 164.403 427.554 172.766 430.795 178.621C434.036 184.475 438.688 187.402 444.752 187.402C448.202 187.402 451.495 186.514 454.631 184.736C457.768 182.959 460.329 180.555 462.315 177.523C463.779 175.223 464.824 172.4 465.452 169.055C466.183 165.605 466.549 161.214 466.549 155.882V149.766Z" fill="#03C83A"/>
<path d="M529.642 170.466C529.642 174.543 529.799 177.784 530.113 180.189C530.531 182.489 531.315 184.266 532.465 185.521C533.615 186.775 535.288 187.611 537.483 188.03C539.679 188.343 542.606 188.5 546.265 188.5V194.773H493.888V188.5C497.024 188.291 499.533 187.977 501.415 187.559C503.297 187.141 504.708 186.305 505.649 185.05C506.59 183.796 507.165 182.018 507.374 179.718C507.688 177.314 507.845 174.125 507.845 170.153V151.021C507.845 144.539 507.688 139.364 507.374 135.496C507.061 131.628 506.381 128.648 505.336 126.557C504.29 124.467 502.774 123.108 500.788 122.48C498.906 121.748 496.397 121.383 493.261 121.383V115.894L524.624 110.092L527.133 128.126H527.76C530.583 122.585 534.294 118.194 538.894 114.953C543.494 111.712 548.356 110.092 553.478 110.092C557.451 110.092 560.692 111.085 563.201 113.071C565.71 115.058 566.965 117.567 566.965 120.598C566.965 123.944 565.971 126.767 563.985 129.067C562.103 131.367 559.49 132.517 556.144 132.517C554.576 132.517 553.165 132.203 551.91 131.576C550.656 130.948 549.506 130.269 548.46 129.537C547.519 128.701 546.526 127.969 545.481 127.342C544.54 126.61 543.547 126.244 542.501 126.244C540.515 126.244 538.633 127.551 536.856 130.164C535.079 132.778 533.615 136.28 532.465 140.671C531.629 143.807 530.949 147.362 530.426 151.335C529.904 155.203 529.642 159.071 529.642 162.939V170.466Z" fill="#03C83A"/>
<path d="M605.549 150.08C596.767 154.053 590.129 157.764 585.633 161.214C581.242 164.559 579.047 168.062 579.047 171.721C579.047 174.752 579.883 177.157 581.556 178.934C583.229 180.712 585.32 181.6 587.829 181.6C590.338 181.6 592.69 181.182 594.885 180.346C597.081 179.405 598.963 178.202 600.531 176.739C602.099 175.275 603.301 173.55 604.138 171.564C605.078 169.473 605.549 167.278 605.549 164.978V150.08ZM605.549 141.769V135.182C605.549 129.119 604.451 124.728 602.256 122.01C600.165 119.187 596.872 117.776 592.376 117.776C589.344 117.776 587.044 118.612 585.476 120.285C583.908 121.853 582.445 124.519 581.085 128.282C580.145 130.896 578.785 132.935 577.008 134.398C575.336 135.862 572.983 136.594 569.951 136.594C567.024 136.594 564.777 135.705 563.208 133.928C561.64 132.151 560.856 129.642 560.856 126.401C560.856 121.383 563.574 117.41 569.011 114.483C574.551 111.555 582.863 110.092 593.944 110.092C605.653 110.092 614.017 112.235 619.035 116.521C624.053 120.703 626.562 127.76 626.562 137.691V172.034C626.562 180.921 628.34 185.364 631.894 185.364C633.88 185.364 635.71 184.684 637.383 183.325L639.735 187.873C638.271 190.486 635.971 192.577 632.835 194.145C629.803 195.609 626.353 196.341 622.485 196.341C617.676 196.341 614.017 194.877 611.508 191.95C608.999 189.023 607.744 184.893 607.744 179.562H606.96C603.928 184.998 600.008 189.127 595.199 191.95C590.39 194.773 584.901 196.184 578.733 196.184C572.147 196.184 566.867 194.355 562.895 190.696C558.922 186.932 556.936 182.071 556.936 176.112C556.936 171.512 558.974 167.225 563.052 163.253C567.129 159.175 573.924 155.203 583.438 151.335L605.549 141.769Z" fill="#03C83A"/>
<path d="M682.11 188.5C685.455 188.5 687.807 188.396 689.166 188.186C690.526 187.873 691.205 187.298 691.205 186.461C691.205 185.834 690.473 184.318 689.01 181.914C687.651 179.405 685.873 176.53 683.678 173.289L671.76 155.412L663.919 162.939V169.055C663.919 173.132 664.076 176.425 664.389 178.934C664.703 181.443 665.226 183.43 665.958 184.893C666.794 186.252 667.892 187.193 669.251 187.716C670.714 188.239 672.544 188.5 674.739 188.5V194.773H628.478V188.5C631.406 188.396 633.758 188.082 635.535 187.559C637.312 187.036 638.724 186.148 639.769 184.893C640.815 183.534 641.494 181.705 641.808 179.405C642.226 177 642.435 173.916 642.435 170.153V103.662C642.435 97.2851 642.331 92.2669 642.121 88.6079C641.912 84.9488 641.337 82.2307 640.396 80.4534C639.56 78.5716 638.201 77.4216 636.319 77.0034C634.542 76.5853 632.085 76.3762 628.949 76.3762V70.574L663.919 64.6149V151.805L678.973 137.535C684.41 132.412 688.278 128.596 690.578 126.087C692.878 123.473 694.028 121.592 694.028 120.442C694.028 119.501 693.035 118.873 691.048 118.56C689.166 118.142 685.612 117.933 680.385 117.933V111.66H723.196V117.933C719.223 117.933 715.721 118.612 712.689 119.971C709.657 121.33 706.364 123.683 702.809 127.028L687.598 141.298L714.728 179.718C717.132 183.064 719.484 185.364 721.784 186.618C724.084 187.873 727.116 188.5 730.88 188.5V194.773H682.11V188.5Z" fill="#03C83A"/>
<path d="M794.817 180.189C785.303 190.957 773.437 196.341 759.219 196.341C752.738 196.341 746.831 195.348 741.499 193.361C736.272 191.271 731.776 188.396 728.013 184.736C724.249 180.973 721.322 176.53 719.231 171.407C717.14 166.284 716.095 160.587 716.095 154.314C716.095 147.832 717.193 141.926 719.388 136.594C721.583 131.157 724.667 126.505 728.64 122.637C732.717 118.664 737.474 115.58 742.91 113.385C748.451 111.189 754.515 110.092 761.101 110.092C772.183 110.092 780.808 113.071 786.976 119.03C793.144 124.989 796.228 133.353 796.228 144.121C796.228 145.794 795.967 146.839 795.444 147.257C794.921 147.571 793.458 147.728 791.053 147.728H740.558C740.14 148.669 739.931 150.394 739.931 152.903C739.931 163.148 742.126 171.25 746.517 177.209C751.013 183.168 757.076 186.148 764.708 186.148C769.099 186.148 773.437 185.155 777.724 183.168C782.115 181.182 786.349 178.359 790.426 174.7L794.817 180.189ZM764.394 138.946C768.576 138.946 771.242 138.737 772.392 138.319C773.646 137.796 774.274 136.646 774.274 134.869C774.274 130.269 772.967 126.505 770.353 123.578C767.74 120.651 764.447 119.187 760.474 119.187C755.978 119.187 751.954 121.069 748.399 124.833C744.949 128.492 742.701 133.196 741.656 138.946H764.394Z" fill="#03C83A"/>
<path d="M794.654 184.736C794.654 181.391 795.751 178.568 797.947 176.268C800.247 173.864 803.07 172.662 806.415 172.662C809.865 172.662 812.74 173.864 815.04 176.268C817.34 178.568 818.49 181.391 818.49 184.736C818.49 187.977 817.34 190.748 815.04 193.048C812.74 195.243 809.865 196.341 806.415 196.341C803.07 196.341 800.247 195.243 797.947 193.048C795.751 190.748 794.654 187.977 794.654 184.736Z" fill="#03C83A"/>
<path d="M782.501 72.2596V68.2095H801.583V72.2596H794.47V91.4438H789.614V72.2596H782.501Z" fill="#03C83A"/>
<path d="M803.447 68.2095H809.506L815.904 83.8201H816.176L822.575 68.2095H828.633V91.4438H823.868V76.3211H823.675L817.663 91.3303H814.418L808.405 76.2644H808.212V91.4438H803.447V68.2095Z" fill="#03C83A"/>
</g>
<rect x="851" y="234" width="808" height="206" transform="rotate(180 851 234)" fill="url(#paint0_linear_131_156)"/>
<defs>
<filter id="filter0_f_131_156" x="0.265625" y="0.614929" width="892.367" height="259.726" filterUnits="userSpaceOnUse" color-interpolation-filters="sRGB">
<feFlood flood-opacity="0" result="BackgroundImageFix"/>
<feBlend mode="normal" in="SourceGraphic" in2="BackgroundImageFix" result="shape"/>
<feGaussianBlur stdDeviation="32" result="effect1_foregroundBlur_131_156"/>
</filter>
<filter id="filter1_f_131_156" x="44.2656" y="44.6149" width="804.367" height="171.726" filterUnits="userSpaceOnUse" color-interpolation-filters="sRGB">
<feFlood flood-opacity="0" result="BackgroundImageFix"/>
<feBlend mode="normal" in="SourceGraphic" in2="BackgroundImageFix" result="shape"/>
<feGaussianBlur stdDeviation="10" result="effect1_foregroundBlur_131_156"/>
</filter>
<filter id="filter2_f_131_156" x="63.2656" y="63.6149" width="766.367" height="133.726" filterUnits="userSpaceOnUse" color-interpolation-filters="sRGB">
<feFlood flood-opacity="0" result="BackgroundImageFix"/>
<feBlend mode="normal" in="SourceGraphic" in2="BackgroundImageFix" result="shape"/>
<feGaussianBlur stdDeviation="0.5" result="effect1_foregroundBlur_131_156"/>
</filter>
<linearGradient id="paint0_linear_131_156" x1="1255" y1="234" x2="1255" y2="440" gradientUnits="userSpaceOnUse">
<stop/>
<stop offset="0.265" stop-opacity="0"/>
<stop offset="0.71" stop-opacity="0"/>
<stop offset="1"/>
</linearGradient>
</defs>
</svg>
